<svg xmlns="http://www.w3.org/2000/svg" viewBox="0 0 257.12 257.12"><defs><style>.cls-1{isolation:isolate;}.cls-2{fill:#b7133a;}.cls-3{fill:#d32254;}.cls-4{fill:#ea3974;}.cls-5{fill:#e2346e;}.cls-5,.cls-6,.cls-7,.cls-8{opacity:0.5;mix-blend-mode:multiply;}.cls-6{fill:#b21f57;}.cls-7{fill:#870e3f;}.cls-8{fill:#96124e;}</style></defs><title>Asset 1</title><g class="cls-1"><g id="Layer_2" data-name="Layer 2"><g id="Layer_2-2" data-name="Layer 2"><polygon class="cls-2" points="94.11 257.1 34.46 222.66 0.01 163 0.01 94.11 34.46 34.45 94.11 0.01 163 0.01 222.66 34.45 257.11 94.11 257.11 163 222.66 222.66 163 257.1 94.11 257.1"/><polygon class="cls-3" points="108.74 202.53 74.41 182.71 54.59 148.38 54.59 108.74 74.41 74.41 108.74 54.58 148.38 54.58 182.71 74.41 202.53 108.74 202.53 148.38 182.71 182.71 148.38 202.53 108.74 202.53"/><polygon class="cls-4" points="116.07 175.18 94.43 162.69 81.94 141.05 81.94 116.07 94.43 94.42 116.07 81.94 141.05 81.94 162.69 94.42 175.18 116.07 175.18 141.05 162.69 162.69 141.05 175.18 116.07 175.18"/><polygon class="cls-5" points="141.05 175.18 163 257.1 94.11 257.1 116.07 175.18 141.05 175.18"/><polygon class="cls-5" points="116.07 81.94 94.11 0.01 163 0.01 141.05 81.94 116.07 81.94"/><polygon class="cls-5" points="81.94 141.05 0.01 163 0.01 94.11 81.94 116.07 81.94 141.05"/><polygon class="cls-5" points="175.18 116.07 257.11 94.11 257.11 163 175.18 141.05 175.18 116.07"/><polygon class="cls-6" points="94.42 94.44 34.42 34.49 94.06 0.02 116.05 81.94 94.42 94.44"/><polygon class="cls-6" points="162.7 162.67 222.7 222.63 163.06 257.1 141.07 175.17 162.7 162.67"/><polygon class="cls-6" points="162.68 94.42 222.63 34.42 257.1 94.06 175.18 116.05 162.68 94.42"/><polygon class="cls-6" points="94.44 162.7 34.49 222.7 0.03 163.06 81.95 141.07 94.44 162.7"/><polygon class="cls-7" points="175.19 141.03 257.12 162.95 222.7 222.63 162.71 162.67 175.19 141.03"/><polygon class="cls-7" points="81.94 116.08 0 94.17 34.42 34.5 94.42 94.45 81.94 116.08"/><polygon class="cls-8" points="116.08 175.19 94.17 257.12 34.49 222.7 94.44 162.71 116.08 175.19"/><polygon class="cls-8" points="141.03 81.94 162.95 0 222.62 34.42 162.67 94.42 141.03 81.94"/></g></g></g></svg>