<svg xmlns="http://www.w3.org/2000/svg" viewBox="0 0 213.58 224.35"><defs><style>.cls-1{isolation:isolate;}.cls-2{fill:#09578c;}.cls-3{fill:#126da0;}.cls-4,.cls-5{fill:#1f8ebf;}.cls-5,.cls-6,.cls-7{opacity:0.6;mix-blend-mode:multiply;}.cls-6{fill:#0f657c;}.cls-7{fill:#53bfe5;}</style></defs><title>Asset 4</title><g class="cls-1"><g id="Layer_2" data-name="Layer 2"><g id="Layer_2-2" data-name="Layer 2"><polygon class="cls-2" points="152.94 0 106.79 29.39 60.63 0 0 35.27 0 112.18 60.63 200.84 106.79 224.35 152.94 200.84 213.58 112.18 213.58 35.27 152.94 0"/><polygon class="cls-3" points="138.51 35.08 106.79 55.28 75.06 35.08 33.39 59.32 33.39 112.18 75.06 173.12 106.79 189.28 138.51 173.12 180.19 112.18 180.19 59.32 138.51 35.08"/><polygon class="cls-4" points="128.01 60.6 106.79 74.12 85.57 60.6 57.7 76.82 57.7 112.18 85.57 152.94 106.79 163.75 128.01 152.94 155.88 112.18 155.88 76.82 128.01 60.6"/><polygon class="cls-5" points="152.94 0 128.01 60.6 106.79 74.12 106.79 29.39 152.94 0"/><polygon class="cls-6" points="60.63 0 85.57 60.6 106.79 74.12 106.79 29.39 60.63 0"/><polygon class="cls-7" points="155.88 76.82 213.58 35.27 152.94 0 128.01 60.6 155.88 76.82"/><polygon class="cls-7" points="57.7 76.82 0 35.27 60.63 0 85.57 60.6 57.7 76.82"/><polygon class="cls-5" points="155.88 112.18 213.58 112.18 213.58 35.27 155.88 76.82 155.88 112.18"/><polygon class="cls-6" points="57.7 112.18 0 112.18 0 35.27 57.7 76.82 57.7 112.18"/><polygon class="cls-7" points="128.01 152.94 152.94 200.84 213.58 112.18 155.88 112.18 128.01 152.94"/><polygon class="cls-7" points="85.57 152.94 60.63 200.84 0 112.18 57.7 112.18 85.57 152.94"/></g></g></g></svg>