<svg xmlns="http://www.w3.org/2000/svg" viewBox="0 0 265.48 265.47"><defs><style>.cls-1{isolation:isolate;}.cls-2{fill:#1d9e44;}.cls-3{fill:#2cc45f;}.cls-4{fill:#48d874;}.cls-5{fill:#10772a;}.cls-5,.cls-6,.cls-7,.cls-8,.cls-9{opacity:0.4;}.cls-5,.cls-6{mix-blend-mode:multiply;}.cls-6{fill:#1f8933;}.cls-7,.cls-8,.cls-9{fill:#56cc64;}.cls-7{mix-blend-mode:color-burn;}.cls-8{mix-blend-mode:overlay;}.cls-9{mix-blend-mode:soft-light;}</style></defs><title>Asset 3</title><g class="cls-1"><g id="Layer_2" data-name="Layer 2"><g id="Layer_2-2" data-name="Layer 2"><polygon class="cls-2" points="77.75 265.47 0 187.72 0 77.76 77.75 0 187.72 0 265.47 77.76 265.47 187.72 187.72 265.47 77.75 265.47"/><polygon class="cls-3" points="99.75 212.36 53.12 165.72 53.12 99.76 99.75 53.12 165.72 53.12 212.36 99.76 212.36 165.72 165.72 212.36 99.75 212.36"/><polygon class="cls-4" points="111.1 184.97 80.5 154.37 80.5 111.1 111.1 80.5 154.37 80.5 184.97 111.1 184.97 154.37 154.37 184.97 111.1 184.97"/><polygon class="cls-5" points="154.37 184.97 187.72 265.47 77.75 265.47 111.1 184.97 154.37 184.97"/><polygon class="cls-6" points="111.1 80.5 77.75 0 187.72 0 154.37 80.5 111.1 80.5"/><polygon class="cls-7" points="0 187.72 80.5 154.37 111.1 184.97 77.75 265.47 0 187.72"/><polygon class="cls-7" points="265.47 77.76 184.97 111.1 154.37 80.5 187.72 0 265.47 77.76"/><polygon class="cls-8" points="0 77.75 80.5 111.1 80.5 154.37 0 187.72 0 77.75"/><polygon class="cls-8" points="265.47 187.72 184.97 154.38 184.97 111.1 265.48 77.75 265.47 187.72"/><polygon class="cls-9" points="77.76 0 111.1 80.5 80.5 111.1 0 77.76 77.76 0"/><polygon class="cls-9" points="187.72 265.47 154.37 184.97 184.97 154.38 265.48 187.72 187.72 265.47"/></g></g></g></svg>