<svg xmlns="http://www.w3.org/2000/svg" viewBox="0 0 257.34 257.33"><defs><style>.cls-1{fill:#6516a3;}.cls-2{fill:#692fbc;}.cls-3{fill:#7a45ce;}.cls-4{fill:#743ace;}.cls-5{fill:#551f93;}.cls-6{fill:#4e1189;}.cls-7{fill:#521499;}.cls-8{fill:#53169b;}</style></defs><title>Asset 6</title><g id="Layer_2" data-name="Layer 2"><g id="Layer_2-2" data-name="Layer 2"><polygon class="cls-1" points="223.37 37.88 128.67 0 33.97 37.88 0.65 128.67 33.97 219.45 128.67 257.33 223.37 219.45 256.68 128.67 223.37 37.88"/><rect class="cls-2" x="89.81" y="89.8" width="77.72" height="77.73"/><polygon class="cls-3" points="89.81 89.8 128.67 0 167.53 89.8 89.81 89.8"/><polygon class="cls-3" points="167.53 167.53 128.67 257.33 89.81 167.53 167.53 167.53"/><polygon class="cls-4" points="167.53 89.8 257.34 128.67 167.53 167.53 167.53 89.8"/><polygon class="cls-4" points="89.81 167.53 0 128.67 89.81 89.8 89.81 167.53"/><polygon class="cls-5" points="33.97 37.88 89.81 89.8 0 128.67 33.97 37.88"/><polygon class="cls-6" points="223.37 37.88 167.53 89.8 257.34 128.67 223.37 37.88"/><polygon class="cls-7" points="223.37 219.45 167.53 167.53 257.34 128.67 223.37 219.45"/><polygon class="cls-8" points="33.97 219.45 89.81 167.53 0 128.67 33.97 219.45"/></g></g></svg>