<svg xmlns="http://www.w3.org/2000/svg" viewBox="0 0 180.89 262.85"><defs><style>.cls-1{isolation:isolate;}.cls-2{fill:#f79f1e;}.cls-3{fill:#f4c121;}.cls-4{fill:#f2d422;}.cls-5{fill:#ce8113;}.cls-5,.cls-6,.cls-7,.cls-8,.cls-9{opacity:0.4;}.cls-5,.cls-6,.cls-7,.cls-8{mix-blend-mode:multiply;}.cls-6{fill:#bf7513;}.cls-7{fill:#a05c0a;}.cls-8{fill:#7c4406;}.cls-9{fill:#c67a1e;mix-blend-mode:color-burn;}</style></defs><title>Asset 5</title><g class="cls-1"><g id="Layer_2" data-name="Layer 2"><g id="Layer_2-2" data-name="Layer 2"><polygon class="cls-2" points="39.38 262.85 0 223.45 0 39.39 39.38 0 141.5 0 180.89 39.39 180.89 223.45 141.5 262.85 39.38 262.85"/><polygon class="cls-3" points="54.25 224.59 26.33 196.66 26.33 66.19 54.25 38.26 126.64 38.26 154.56 66.19 154.56 196.66 126.64 224.59 54.25 224.59"/><polygon class="cls-4" points="64.73 197.6 44.9 177.76 44.9 85.08 64.73 65.24 116.16 65.24 135.99 85.08 135.99 177.76 116.16 197.6 64.73 197.6"/><polygon class="cls-5" points="39.38 262.85 64.73 197.6 116.16 197.6 141.5 262.85 39.38 262.85"/><polygon class="cls-6" points="141.5 0 116.16 65.24 64.73 65.24 39.38 0 141.5 0"/><polygon class="cls-7" points="0 39.39 44.9 85.08 44.9 177.76 0 223.45 0 39.39"/><polygon class="cls-8" points="180.89 223.45 135.99 177.76 135.99 85.08 180.89 39.39 180.89 223.45"/><polygon class="cls-9" points="44.9 177.76 64.73 197.6 39.38 262.85 0 223.45 44.9 177.76"/><polygon class="cls-9" points="135.99 85.08 116.16 65.24 141.5 0 180.89 39.39 135.99 85.08"/></g></g></g></svg>